# xmcd
#
# Track frame offsets:
#	150
#	2932
#	25742
#	67479
#	69753
#	92266
#	128938
#	167131
#	178415
#	219738
#	225268
#
# Disc length: 3998 seconds
#
# Revision: 1
# Processed by: cddbd v1.5.2PL0 Copyright (c) Steve Scherf et al.
# Submitted via: audiograbber 1.83.01
#
DISCID=940f9c0b
DTITLE=MAVIS STAPLES - MONTEREY JAZZ FESTIVAL 17.09.2005
DYEAR=1900
DGENRE=
TTITLE0=MC Intro
TTITLE1=If You're Ready (Come Go With Me)
TTITLE2=Will The Circle Be Unbroken?
TTITLE3=Shouldn't Have Been A Break
TTITLE4=The Weight
TTITLE5=Have A Little Faith
TTITLE6=God Is Not Sleeping
TTITLE7=Chat
TTITLE8=I'll Take You There
TTITLE9=DJs chat
TTITLE10=Interview
EXTD=
EXTT0=
EXTT1=
EXTT2=
EXTT3=
EXTT4=
EXTT5=
EXTT6=
EXTT7=
EXTT8=
EXTT9=
EXTT10=
PLAYORDER=
